<?xml version="1.0" encoding="utf-8"?>
<!-- Generator: Adobe Illustrator 24.1.3, SVG Export Plug-In . SVG Version: 6.00 Build 0)  -->
<svg version="1.1" id="Camada_1" xmlns="http://www.w3.org/2000/svg" xmlns:xlink="http://www.w3.org/1999/xlink" x="0px" y="0px"
	 viewBox="0 0 255 370" style="enable-background:new 0 0 255 370;" xml:space="preserve">
<style type="text/css">
	.st0{fill:#1C1824;}
	.st1{fill:none;}
	.st2{fill:#FFFFFF;}
	.st3{fill:url(#Triangle_1_);}
	.st4{fill:url(#Triangle-2_1_);}
</style>
<g id="_2" transform="translate(-110 -646)">
	<g transform="matrix(1, 0, 0, 1, 110, 646)">
		<path id="Card-2" class="st0" d="M22.3,0h211c12.2,0,22,9.8,22,22v326c0,12.2-9.8,22-22,22h-211c-12.2,0-22-9.8-22-22V22
			C0.3,9.8,10.1,0,22.3,0z"/>
	</g>
	<g id="top_symbol" transform="translate(0.51 -4.375)">
		<g id="Polígono_4" transform="translate(197.49 736.5) rotate(180)">
			<path class="st1" d="M58.8,20l9.1,16H49.7L58.8,20z"/>
			<path class="st2" d="M58.8,24.1L53.1,34h11.3L58.8,24.1 M58.8,20l9.1,16H49.7L58.8,20z"/>
		</g>
		<path id="Caminho_30" class="st2" d="M132.9,687c2.6-1.7,5-3.6,7.1-5.9c1.8-2,2.6-3.8,2.6-5.5c0-1-0.3-1.9-0.8-2.6
			c-0.7-0.7-1.7-1.1-2.8-1c-1.1-0.1-2.2,0.4-3,1.2c-0.7,0.9-1.1,2.1-1.1,3.3h-1.7c0-1.7,0.6-3.2,1.8-4.4c1.1-1.1,2.6-1.6,4.2-1.6
			c1.4-0.1,2.7,0.4,3.8,1.3c1,1,1.5,2.3,1.4,3.7c0,1.5-0.5,3-1.4,4.2c-1,1.5-2.1,2.8-3.4,4c-1.3,1.2-2.7,2.2-4.2,3.1h9.5v1.5h-12
			V687z"/>
	</g>
	<g id="Bottom_symbol" transform="translate(377 974.125)">
		<g id="Polígono_4-2" transform="translate(18.162 10) rotate(180)">
			<path class="st1" d="M58.8,20l9.1,16H49.7L58.8,20z"/>
			<path class="st2" d="M58.8,24.1L53.1,34h11.3L58.8,24.1 M58.8,20l9.1,16H49.7L58.8,20z"/>
		</g>
		<path id="Caminho_30-2" class="st2" d="M-46.4,3.5c2.6,1.7,5,3.6,7.1,5.9c1.8,2,2.6,3.8,2.6,5.5c0,1-0.3,1.9-0.8,2.6
			c-0.7,0.7-1.7,1.1-2.8,1c-1.1,0.1-2.2-0.4-3-1.2c-0.7-0.9-1.1-2.1-1.1-3.3h-1.7c0,1.7,0.6,3.2,1.8,4.4c1.1,1.1,2.6,1.6,4.2,1.6
			c1.4,0.1,2.7-0.4,3.8-1.3c1-1,1.5-2.3,1.5-3.7c0-1.5-0.5-3-1.4-4.2c-1-1.5-2.1-2.8-3.4-4c-1.3-1.2-2.7-2.2-4.2-3.1h9.5V2.2h-12
			V3.5z"/>
	</g>
	
		<linearGradient id="Triangle_1_" gradientUnits="userSpaceOnUse" x1="114.695" y1="1412.5187" x2="114.695" y2="1411.5187" gradientTransform="matrix(-50 0 0 43.284 5973.04 -60384.4609)">
		<stop  offset="0" style="stop-color:#FE8C00"/>
		<stop  offset="1" style="stop-color:#F83600"/>
	</linearGradient>
	<path id="Triangle" class="st3" d="M238.3,755l-25-43.3h50L238.3,755z"/>
	
		<linearGradient id="Triangle-2_1_" gradientUnits="userSpaceOnUse" x1="114.695" y1="1412.5187" x2="114.695" y2="1411.5187" gradientTransform="matrix(-50 0 0 43.284 5973.04 -60191.4609)">
		<stop  offset="0" style="stop-color:#FE8C00"/>
		<stop  offset="1" style="stop-color:#F83600"/>
	</linearGradient>
	<path id="Triangle-2" class="st4" d="M238.3,948l-25-43.3h50L238.3,948z"/>
</g>
</svg>
