<?xml version="1.0" encoding="utf-8"?>
<!-- Generator: Adobe Illustrator 24.1.3, SVG Export Plug-In . SVG Version: 6.00 Build 0)  -->
<svg version="1.1" id="Camada_1" xmlns="http://www.w3.org/2000/svg" xmlns:xlink="http://www.w3.org/1999/xlink" x="0px" y="0px"
	 viewBox="0 0 255 370" style="enable-background:new 0 0 255 370;" xml:space="preserve">
<style type="text/css">
	.st0{fill:#1C1824;}
	.st1{fill:none;}
	.st2{fill:#FFFFFF;}
	.st3{fill:url(#Triangle_2_);}
	.st4{fill:url(#Triangle-2_2_);}
	.st5{fill:url(#Triangle-3_1_);}
</style>
<g id="_3" transform="translate(-110 -646)">
	<g transform="matrix(1, 0, 0, 1, 110, 646)">
		<path id="Card-2_1_" class="st0" d="M22.1,0.6h211c12.2,0,22,9.8,22,22v326c0,12.2-9.8,22-22,22h-211c-12.2,0-22-9.8-22-22v-326
			C0.1,10.4,9.9,0.6,22.1,0.6z"/>
	</g>
	<g id="top_symbol_1_" transform="translate(0.51 -4.375)">
		<g id="Polígono_4_1_" transform="translate(197.652 736.408) rotate(180)">
			<path class="st1" d="M59,19.4l9.1,16H49.9L59,19.4z"/>
			<path class="st2" d="M59,23.5l-5.6,9.9h11.3L59,23.5 M59,19.4l9.1,16H49.9L59,19.4z"/>
		</g>
		<path id="Caminho_31" class="st2" d="M138.8,670.9c1,0,2,0.2,2.8,0.6c0.7,0.4,1.4,0.9,1.8,1.6c0.4,0.7,0.6,1.5,0.6,2.3
			c0,1-0.3,2-1,2.8c-0.8,0.8-1.8,1.3-3,1.3v0.2c1.2,0.2,2.2,0.8,3.1,1.6c0.8,0.8,1.2,1.8,1.1,2.9c0,1.3-0.5,2.6-1.4,3.5
			c-1.1,1-2.6,1.5-4.1,1.3c-1.6,0.1-3.1-0.4-4.3-1.4c-1.2-1-1.9-2.5-2-4h1.7c0.1,1.1,0.6,2.1,1.4,2.8c0.9,0.7,2,1.1,3.1,1.1
			c1,0.1,2.1-0.3,2.9-1c0.7-0.6,1-1.5,1-2.5c0.1-1.1-0.5-2.1-1.4-2.7c-1.2-0.7-2.6-1-4-0.9h-0.6V679h0.6c3.4,0,5.1-1.1,5.1-3.4
			c0-0.9-0.3-1.7-0.9-2.3c-0.7-0.6-1.7-0.9-2.6-0.9c-1,0-2,0.3-2.8,0.9c-0.8,0.7-1.3,1.7-1.4,2.8h-1.7c0-1.5,0.7-2.8,1.8-3.8
			C135.8,671.3,137.3,670.9,138.8,670.9z"/>
	</g>
	
		<linearGradient id="Triangle_2_" gradientUnits="userSpaceOnUse" x1="114.6994" y1="1412.5319" x2="114.6994" y2="1411.5319" gradientTransform="matrix(-50 0 0 43.284 5973.04 -60384.4609)">
		<stop  offset="0" style="stop-color:#FE8C00"/>
		<stop  offset="1" style="stop-color:#F83600"/>
	</linearGradient>
	<path id="Triangle_1_" class="st3" d="M238.1,755.6l-25-43.3h50L238.1,755.6z"/>
	
		<linearGradient id="Triangle-2_2_" gradientUnits="userSpaceOnUse" x1="114.6994" y1="1412.5319" x2="114.6994" y2="1411.5319" gradientTransform="matrix(-50 0 0 43.284 5973.04 -60192.4609)">
		<stop  offset="0" style="stop-color:#FE8C00"/>
		<stop  offset="1" style="stop-color:#F83600"/>
	</linearGradient>
	<path id="Triangle-2_1_" class="st4" d="M238.1,947.6l-25-43.3h50L238.1,947.6z"/>
	<g id="top_symbol-2" transform="translate(377 974)">
		<g id="Polígono_4-2_1_" transform="translate(18.162 9) rotate(180)">
			<path class="st1" d="M59,19.4l9.1,16H49.9L59,19.4z"/>
			<path class="st2" d="M59,23.5l-5.6,9.9h11.3L59,23.5 M59,19.4l9.1,16H49.9L59,19.4z"/>
		</g>
		<path id="Caminho_31-2" class="st2" d="M-40.7,19.7c1,0,2-0.2,2.8-0.6c0.7-0.4,1.4-0.9,1.8-1.6c0.4-0.7,0.6-1.5,0.6-2.3
			c0-1-0.3-2-1-2.8c-0.8-0.8-1.8-1.3-3-1.4v-0.1c1.2-0.2,2.2-0.8,3.1-1.6c0.8-0.8,1.2-1.8,1.1-2.9c0-1.3-0.5-2.6-1.4-3.5
			c-1.1-1-2.6-1.5-4.1-1.4c-1.6-0.1-3.1,0.4-4.3,1.4c-1.2,1-1.9,2.5-2,4h1.7c0.1-1.1,0.6-2.1,1.4-2.8c0.9-0.7,2-1.1,3.1-1.1
			c1-0.1,2.1,0.3,2.9,0.9c0.7,0.6,1,1.5,1,2.5c0.1,1.1-0.5,2.1-1.4,2.7c-1.2,0.7-2.6,1-4,0.9h-0.5v1.5h0.5c3.4,0,5.1,1.1,5.1,3.4
			c0,0.9-0.3,1.7-1,2.4c-0.7,0.6-1.7,0.9-2.6,0.9c-1,0-2-0.3-2.8-0.9c-0.8-0.7-1.3-1.7-1.4-2.8h-1.7c0,1.5,0.7,2.8,1.8,3.8
			C-43.7,19.3-42.2,19.8-40.7,19.7z"/>
	</g>
	
		<linearGradient id="Triangle-3_1_" gradientUnits="userSpaceOnUse" x1="114.6994" y1="1412.5319" x2="114.6994" y2="1411.5319" gradientTransform="matrix(-50 0 0 43.284 5973.04 -60288.1758)">
		<stop  offset="0" style="stop-color:#FE8C00"/>
		<stop  offset="1" style="stop-color:#F83600"/>
	</linearGradient>
	<path id="Triangle-3" class="st5" d="M238.1,851.9l-25-43.3h50L238.1,851.9z"/>
</g>
</svg>
