<?xml version="1.0" encoding="utf-8"?>
<!-- Generator: Adobe Illustrator 24.1.3, SVG Export Plug-In . SVG Version: 6.00 Build 0)  -->
<svg version="1.1" id="Camada_1" xmlns="http://www.w3.org/2000/svg" xmlns:xlink="http://www.w3.org/1999/xlink" x="0px" y="0px"
	 viewBox="0 0 255 370" style="enable-background:new 0 0 255 370;" xml:space="preserve">
<style type="text/css">
	.st0{fill:#1C1824;}
	.st1{fill:none;}
	.st2{fill:#FFFFFF;}
	.st3{fill:url(#Triangle_1_);}
	.st4{fill:url(#Triangle-2_1_);}
	.st5{fill:url(#Triangle-3_1_);}
	.st6{fill:url(#Triangle-4_1_);}
	.st7{fill:url(#Triangle-5_1_);}
</style>
<g id="_5" transform="translate(-110 -646)">
	<g transform="matrix(1, 0, 0, 1, 110, 646)">
		<path id="Card-2" class="st0" d="M22.1,0.7h211c12.2,0,22,9.8,22,22v326c0,12.2-9.8,22-22,22h-211c-12.2,0-22-9.8-22-22v-326
			C0.1,10.6,9.9,0.7,22.1,0.7z"/>
	</g>
	<g id="top_symbol" transform="translate(0.51 -4.375)">
		<g id="Polígono_4" transform="translate(197.652 736.5) rotate(180)">
			<path class="st1" d="M59,19.3l9.1,16H49.9L59,19.3z"/>
			<path class="st2" d="M59,23.3l-5.6,9.9h11.3L59,23.3 M59,19.3l9.1,16H49.9L59,19.3z"/>
		</g>
		<path id="Caminho_33" class="st2" d="M143.7,672.9h-9.3v6.5c0.5-0.6,1.2-1.1,1.9-1.5c0.9-0.4,1.8-0.6,2.7-0.5
			c1.6-0.1,3.1,0.5,4.2,1.6c0.9,1.1,1.4,2.6,1.4,4.1c0.1,1.6-0.5,3.2-1.5,4.4c-1.2,1.2-2.8,1.8-4.4,1.7c-1.5,0.1-3-0.4-4.2-1.4
			c-1.1-1-1.8-2.3-1.9-3.8h1.7c0.1,1,0.7,2,1.4,2.7c0.8,0.6,1.8,1,2.8,1c1.2,0.1,2.4-0.4,3.2-1.3c0.8-0.9,1.1-2.1,1.1-3.3
			c0.1-1.1-0.3-2.3-1.1-3.1c-0.8-0.8-2-1.2-3.1-1.1c-0.9,0-1.7,0.2-2.5,0.6c-0.7,0.4-1.3,1-1.7,1.6h-1.7v-9.8h11V672.9z"/>
	</g>
	<g id="top_symbol-2" transform="translate(377 968.225)">
		<g id="Polígono_4-2" transform="translate(18.162 16) rotate(180)">
			<path class="st1" d="M59,19.3l9.1,16H49.9L59,19.3z"/>
			<path class="st2" d="M59,23.3l-5.6,9.9h11.3L59,23.3 M59,19.3l9.1,16H49.9L59,19.3z"/>
		</g>
		<path id="Caminho_33-2" class="st2" d="M-35.8,25.1h-9.4v-6.5c0.5,0.6,1.2,1.1,1.9,1.4c0.9,0.4,1.8,0.6,2.7,0.6
			c1.6,0.1,3.1-0.5,4.2-1.6c0.9-1.1,1.4-2.6,1.4-4.1c0.1-1.6-0.5-3.2-1.5-4.4c-1.2-1.2-2.8-1.8-4.5-1.7c-1.5-0.1-3,0.4-4.2,1.4
			c-1.1,1-1.8,2.3-1.9,3.8h1.7c0.1-1,0.7-2,1.5-2.7c0.8-0.6,1.8-1,2.8-1c1.2-0.1,2.4,0.4,3.2,1.3c0.8,0.9,1.1,2.1,1.1,3.3
			c0.1,1.1-0.3,2.3-1.1,3.1c-0.8,0.8-2,1.2-3.2,1.1c-0.9,0-1.7-0.2-2.5-0.6c-0.7-0.4-1.3-1-1.7-1.6h-1.7v9.8h11V25.1z"/>
	</g>
	
		<linearGradient id="Triangle_1_" gradientUnits="userSpaceOnUse" x1="114.6994" y1="1412.5352" x2="114.6994" y2="1411.5352" gradientTransform="matrix(-50 0 0 43.284 5922.04 -60384.4609)">
		<stop  offset="0" style="stop-color:#FE8C00"/>
		<stop  offset="1" style="stop-color:#F83600"/>
	</linearGradient>
	<path id="Triangle" class="st3" d="M187.1,755.7l-25-43.3h50L187.1,755.7z"/>
	
		<linearGradient id="Triangle-2_1_" gradientUnits="userSpaceOnUse" x1="114.6994" y1="1412.5352" x2="114.6994" y2="1411.5352" gradientTransform="matrix(-50 0 0 43.284 6023.04 -60384.4609)">
		<stop  offset="0" style="stop-color:#FE8C00"/>
		<stop  offset="1" style="stop-color:#F83600"/>
	</linearGradient>
	<path id="Triangle-2" class="st4" d="M288.1,755.7l-25-43.3h50L288.1,755.7z"/>
	
		<linearGradient id="Triangle-3_1_" gradientUnits="userSpaceOnUse" x1="114.6994" y1="1412.5352" x2="114.6994" y2="1411.5352" gradientTransform="matrix(-50 0 0 43.284 5922.04 -60191.4609)">
		<stop  offset="0" style="stop-color:#FE8C00"/>
		<stop  offset="1" style="stop-color:#F83600"/>
	</linearGradient>
	<path id="Triangle-3" class="st5" d="M187.1,948.7l-25-43.3h50L187.1,948.7z"/>
	
		<linearGradient id="Triangle-4_1_" gradientUnits="userSpaceOnUse" x1="114.6994" y1="1412.5352" x2="114.6994" y2="1411.5352" gradientTransform="matrix(-50 0 0 43.284 6023.04 -60191.4609)">
		<stop  offset="0" style="stop-color:#FE8C00"/>
		<stop  offset="1" style="stop-color:#F83600"/>
	</linearGradient>
	<path id="Triangle-4" class="st6" d="M288.1,948.7l-25-43.3h50L288.1,948.7z"/>
	
		<linearGradient id="Triangle-5_1_" gradientUnits="userSpaceOnUse" x1="114.6994" y1="1412.5352" x2="114.6994" y2="1411.5352" gradientTransform="matrix(-50 0 0 43.284 5973.04 -60288.1758)">
		<stop  offset="0" style="stop-color:#FE8C00"/>
		<stop  offset="1" style="stop-color:#F83600"/>
	</linearGradient>
	<path id="Triangle-5" class="st7" d="M238.1,852l-25-43.3h50L238.1,852z"/>
</g>
</svg>
