<?xml version="1.0" encoding="utf-8"?>
<!-- Generator: Adobe Illustrator 24.1.3, SVG Export Plug-In . SVG Version: 6.00 Build 0)  -->
<svg version="1.1" id="Camada_1" xmlns="http://www.w3.org/2000/svg" xmlns:xlink="http://www.w3.org/1999/xlink" x="0px" y="0px"
	 viewBox="0 0 255 370" style="enable-background:new 0 0 255 370;" xml:space="preserve">
<style type="text/css">
	.st0{fill:#1C1824;}
	.st1{fill:none;}
	.st2{fill:#FFFFFF;}
	.st3{fill:url(#Triangle_1_);}
	.st4{fill:url(#Triangle-2_1_);}
	.st5{fill:url(#Triangle-3_1_);}
	.st6{fill:url(#Triangle-4_1_);}
	.st7{fill:url(#Triangle-5_1_);}
	.st8{fill:url(#Triangle-6_1_);}
</style>
<g id="_6" transform="translate(-110 -646)">
	<g transform="matrix(1, 0, 0, 1, 110, 646)">
		<path id="Card-2" class="st0" d="M22.1,0.3h211c12.2,0,22,9.8,22,22v326c0,12.2-9.8,22-22,22h-211c-12.2,0-22-9.8-22-22v-326
			C0.1,10.1,9.9,0.3,22.1,0.3z"/>
	</g>
	<g id="top_symbol" transform="translate(0.51 -4.375)">
		<g id="Polígono_4" transform="translate(197.652 736.5) rotate(180)">
			<path class="st1" d="M59,19.7l9.1,16H49.9L59,19.7z"/>
			<path class="st2" d="M59,23.8l-5.6,9.9h11.3L59,23.8 M59,19.7l9.1,16H49.9L59,19.7z"/>
		</g>
		<path id="Caminho_34" class="st2" d="M142.3,675.7c-0.1-1-0.5-1.9-1.2-2.6c-0.7-0.7-1.7-1-2.6-0.9c-1.4-0.1-2.7,0.6-3.5,1.8
			c-0.8,1.2-1.2,3-1.2,5.6c0,0.5,0,0.8,0,1.1c0.2-1.1,0.9-2,1.8-2.6c1-0.7,2.2-1,3.4-1c1.6-0.1,3.1,0.5,4.2,1.6
			c1.1,1.2,1.6,2.8,1.5,4.4c0,1-0.2,2-0.6,3c-0.4,0.9-1.1,1.6-1.9,2.1c-1,0.6-2.1,0.8-3.3,0.8c-2.5,0-4.2-0.8-5.2-2.4
			c-1-2-1.5-4.2-1.4-6.4c0-3.1,0.5-5.4,1.5-7c1.1-1.6,3-2.5,4.9-2.4c1.4-0.1,2.8,0.4,3.8,1.4c0.9,1,1.5,2.3,1.6,3.6L142.3,675.7z
			 M134,682.6c0,0.8,0.2,1.6,0.5,2.3c0.3,0.7,0.9,1.3,1.6,1.7c0.8,0.5,1.7,0.7,2.7,0.7c1.1,0.1,2.3-0.4,3.1-1.2
			c0.8-0.9,1.2-2,1.2-3.2c0.1-1.2-0.3-2.5-1.2-3.4c-0.9-0.8-2-1.2-3.2-1.2c-0.8,0-1.5,0.2-2.2,0.5c-0.7,0.3-1.3,0.8-1.7,1.4
			C134.2,680.9,134,681.7,134,682.6z"/>
	</g>
	<g id="top_symbol-2" transform="translate(377 968)">
		<g id="Polígono_4-2" transform="translate(18.162 16) rotate(180)">
			<path class="st1" d="M59,19.7l9.1,16H49.9L59,19.7z"/>
			<path class="st2" d="M59,23.8l-5.6,9.9h11.3L59,23.8 M59,19.7l9.1,16H49.9L59,19.7z"/>
		</g>
		<path id="Caminho_34-2" class="st2" d="M-37.2,21.4c-0.1,1-0.5,1.9-1.2,2.6c-0.7,0.7-1.7,1-2.6,0.9c-1.4,0.1-2.7-0.6-3.5-1.8
			c-0.8-1.2-1.2-3-1.2-5.6c0-0.5,0-0.9,0-1.1c0.2,1.1,0.9,2,1.8,2.6c1,0.7,2.2,1,3.4,1c1.6,0.1,3.1-0.5,4.2-1.6
			c1.1-1.2,1.6-2.8,1.5-4.4c0-1-0.2-2-0.6-2.9c-0.4-0.9-1.1-1.6-1.9-2.1c-1-0.6-2.1-0.8-3.3-0.8c-2.5,0-4.2,0.8-5.2,2.4
			c-1,2-1.5,4.2-1.4,6.4c0,3.1,0.5,5.4,1.5,7c1.1,1.6,3,2.5,4.9,2.4c1.4,0.1,2.8-0.4,3.8-1.4c0.9-1,1.5-2.3,1.6-3.6L-37.2,21.4z
			 M-45.5,14.5c0-0.8,0.2-1.6,0.5-2.3c0.3-0.7,0.9-1.3,1.6-1.8c0.8-0.5,1.7-0.7,2.6-0.7c1.1-0.1,2.3,0.4,3.1,1.2
			c0.8,0.9,1.2,2,1.2,3.2c0.1,1.2-0.3,2.5-1.2,3.4c-0.9,0.8-2,1.2-3.2,1.2c-0.8,0-1.5-0.2-2.2-0.5c-0.7-0.3-1.3-0.8-1.7-1.4
			C-45.3,16.1-45.5,15.3-45.5,14.5z"/>
	</g>
	
		<linearGradient id="Triangle_1_" gradientUnits="userSpaceOnUse" x1="114.6994" y1="1412.5253" x2="114.6994" y2="1411.5253" gradientTransform="matrix(-50 0 0 43.284 5922.04 -60384.4609)">
		<stop  offset="0" style="stop-color:#FE8C00"/>
		<stop  offset="1" style="stop-color:#F83600"/>
	</linearGradient>
	<path id="Triangle" class="st3" d="M187.1,755.3l-25-43.3h50L187.1,755.3z"/>
	
		<linearGradient id="Triangle-2_1_" gradientUnits="userSpaceOnUse" x1="114.6994" y1="1412.5253" x2="114.6994" y2="1411.5253" gradientTransform="matrix(-50 0 0 43.284 6023.04 -60384.4609)">
		<stop  offset="0" style="stop-color:#FE8C00"/>
		<stop  offset="1" style="stop-color:#F83600"/>
	</linearGradient>
	<path id="Triangle-2" class="st4" d="M288.1,755.3l-25-43.3h50L288.1,755.3z"/>
	
		<linearGradient id="Triangle-3_1_" gradientUnits="userSpaceOnUse" x1="114.6994" y1="1412.5253" x2="114.6994" y2="1411.5253" gradientTransform="matrix(-50 0 0 43.284 5922.04 -60191.4609)">
		<stop  offset="0" style="stop-color:#FE8C00"/>
		<stop  offset="1" style="stop-color:#F83600"/>
	</linearGradient>
	<path id="Triangle-3" class="st5" d="M187.1,948.3l-25-43.3h50L187.1,948.3z"/>
	
		<linearGradient id="Triangle-4_1_" gradientUnits="userSpaceOnUse" x1="114.6994" y1="1412.5253" x2="114.6994" y2="1411.5253" gradientTransform="matrix(-50 0 0 43.284 6023.04 -60191.4609)">
		<stop  offset="0" style="stop-color:#FE8C00"/>
		<stop  offset="1" style="stop-color:#F83600"/>
	</linearGradient>
	<path id="Triangle-4" class="st6" d="M288.1,948.3l-25-43.3h50L288.1,948.3z"/>
	
		<linearGradient id="Triangle-5_1_" gradientUnits="userSpaceOnUse" x1="114.6994" y1="1412.5253" x2="114.6994" y2="1411.5253" gradientTransform="matrix(-50 0 0 43.284 5922.04 -60288.1758)">
		<stop  offset="0" style="stop-color:#FE8C00"/>
		<stop  offset="1" style="stop-color:#F83600"/>
	</linearGradient>
	<path id="Triangle-5" class="st7" d="M187.1,851.6l-25-43.3h50L187.1,851.6z"/>
	
		<linearGradient id="Triangle-6_1_" gradientUnits="userSpaceOnUse" x1="114.6994" y1="1412.5253" x2="114.6994" y2="1411.5253" gradientTransform="matrix(-50 0 0 43.284 6023.04 -60288.1758)">
		<stop  offset="0" style="stop-color:#FE8C00"/>
		<stop  offset="1" style="stop-color:#F83600"/>
	</linearGradient>
	<path id="Triangle-6" class="st8" d="M288.1,851.6l-25-43.3h50L288.1,851.6z"/>
</g>
</svg>
