<?xml version="1.0" encoding="utf-8"?>
<!-- Generator: Adobe Illustrator 24.1.3, SVG Export Plug-In . SVG Version: 6.00 Build 0)  -->
<svg version="1.1" id="Camada_1" xmlns="http://www.w3.org/2000/svg" xmlns:xlink="http://www.w3.org/1999/xlink" x="0px" y="0px"
	 viewBox="0 0 255 370" style="enable-background:new 0 0 255 370;" xml:space="preserve">
<style type="text/css">
	.st0{fill:#1C1824;}
	.st1{fill:none;}
	.st2{fill:#FFFFFF;}
	.st3{fill:url(#Triangle_1_);}
	.st4{fill:url(#Triangle-2_1_);}
	.st5{fill:url(#Triangle-3_1_);}
	.st6{fill:url(#Triangle-4_1_);}
	.st7{fill:url(#Triangle-5_1_);}
	.st8{fill:url(#Triangle-6_1_);}
	.st9{fill:url(#Triangle-7_1_);}
</style>
<g id="_7" transform="translate(-110 -646)">
	<g transform="matrix(1, 0, 0, 1, 110, 646)">
		<path id="Card-2" class="st0" d="M22.1,0h211c12.2,0,22,9.8,22,22v326c0,12.2-9.8,22-22,22h-211c-12.2,0-22-9.8-22-22V22
			C0.1,9.8,9.9,0,22.1,0z"/>
	</g>
	<g id="top_symbol" transform="translate(0.51 -4.375)">
		<g id="Polígono_4" transform="translate(197.652 736.5) rotate(180)">
			<path class="st1" d="M59,20l9.1,16H49.9L59,20z"/>
			<path class="st2" d="M59,24.1L53.4,34h11.3L59,24.1 M59,20l9.1,16H49.9L59,20z"/>
		</g>
		<path id="Caminho_35" class="st2" d="M144.4,672l-6.8,16.3h-1.9l6.9-16.2h-9.7v-1.5h11.5V672z"/>
	</g>
	<g id="top_symbol-2" transform="translate(377 968.325)">
		<g id="Polígono_4-2" transform="translate(18.162 16) rotate(180)">
			<path class="st1" d="M59,20l9.1,16H49.9L59,20z"/>
			<path class="st2" d="M59,24.1L53.4,34h11.3L59,24.1 M59,20l9.1,16H49.9L59,20z"/>
		</g>
		<path id="Caminho_35-2" class="st2" d="M-35.1,24.4l-6.8-16.3h-1.8l6.8,16.1h-9.7v1.5h11.5V24.4z"/>
	</g>
	
		<linearGradient id="Triangle_1_" gradientUnits="userSpaceOnUse" x1="114.6994" y1="1412.5187" x2="114.6994" y2="1411.5187" gradientTransform="matrix(-50 0 0 43.284 5922.04 -60384.4609)">
		<stop  offset="0" style="stop-color:#FE8C00"/>
		<stop  offset="1" style="stop-color:#F83600"/>
	</linearGradient>
	<path id="Triangle" class="st3" d="M187.1,755l-25-43.3h50L187.1,755z"/>
	
		<linearGradient id="Triangle-2_1_" gradientUnits="userSpaceOnUse" x1="114.6994" y1="1412.5187" x2="114.6994" y2="1411.5187" gradientTransform="matrix(-50 0 0 43.284 6023.04 -60384.4609)">
		<stop  offset="0" style="stop-color:#FE8C00"/>
		<stop  offset="1" style="stop-color:#F83600"/>
	</linearGradient>
	<path id="Triangle-2" class="st4" d="M288.1,755l-25-43.3h50L288.1,755z"/>
	
		<linearGradient id="Triangle-3_1_" gradientUnits="userSpaceOnUse" x1="114.6994" y1="1412.5187" x2="114.6994" y2="1411.5187" gradientTransform="matrix(-50 0 0 43.284 5973.04 -60341.4609)">
		<stop  offset="0" style="stop-color:#FE8C00"/>
		<stop  offset="1" style="stop-color:#F83600"/>
	</linearGradient>
	<path id="Triangle-3" class="st5" d="M238.1,798l-25-43.3h50L238.1,798z"/>
	
		<linearGradient id="Triangle-4_1_" gradientUnits="userSpaceOnUse" x1="114.6994" y1="1412.5187" x2="114.6994" y2="1411.5187" gradientTransform="matrix(-50 0 0 43.284 5922.04 -60191.4609)">
		<stop  offset="0" style="stop-color:#FE8C00"/>
		<stop  offset="1" style="stop-color:#F83600"/>
	</linearGradient>
	<path id="Triangle-4" class="st6" d="M187.1,948l-25-43.3h50L187.1,948z"/>
	
		<linearGradient id="Triangle-5_1_" gradientUnits="userSpaceOnUse" x1="114.6994" y1="1412.5187" x2="114.6994" y2="1411.5187" gradientTransform="matrix(-50 0 0 43.284 6023.04 -60191.4609)">
		<stop  offset="0" style="stop-color:#FE8C00"/>
		<stop  offset="1" style="stop-color:#F83600"/>
	</linearGradient>
	<path id="Triangle-5" class="st7" d="M288.1,948l-25-43.3h50L288.1,948z"/>
	
		<linearGradient id="Triangle-6_1_" gradientUnits="userSpaceOnUse" x1="114.6994" y1="1412.5187" x2="114.6994" y2="1411.5187" gradientTransform="matrix(-50 0 0 43.284 5922.04 -60288.1758)">
		<stop  offset="0" style="stop-color:#FE8C00"/>
		<stop  offset="1" style="stop-color:#F83600"/>
	</linearGradient>
	<path id="Triangle-6" class="st8" d="M187.1,851.3l-25-43.3h50L187.1,851.3z"/>
	
		<linearGradient id="Triangle-7_1_" gradientUnits="userSpaceOnUse" x1="114.6994" y1="1412.5187" x2="114.6994" y2="1411.5187" gradientTransform="matrix(-50 0 0 43.284 6023.04 -60288.1758)">
		<stop  offset="0" style="stop-color:#FE8C00"/>
		<stop  offset="1" style="stop-color:#F83600"/>
	</linearGradient>
	<path id="Triangle-7" class="st9" d="M288.1,851.3l-25-43.3h50L288.1,851.3z"/>
</g>
</svg>
