<?xml version="1.0" encoding="utf-8"?>
<!-- Generator: Adobe Illustrator 24.1.3, SVG Export Plug-In . SVG Version: 6.00 Build 0)  -->
<svg version="1.1" id="Camada_1" xmlns="http://www.w3.org/2000/svg" xmlns:xlink="http://www.w3.org/1999/xlink" x="0px" y="0px"
	 viewBox="0 0 255 370" style="enable-background:new 0 0 255 370;" xml:space="preserve">
<style type="text/css">
	.st0{fill:#1C1824;}
	.st1{fill:none;}
	.st2{fill:#FFFFFF;}
	.st3{fill:url(#Triangle_1_);}
	.st4{fill:url(#Triangle-2_1_);}
	.st5{fill:url(#Triangle-3_1_);}
	.st6{fill:url(#Triangle-4_1_);}
	.st7{fill:url(#Triangle-5_1_);}
	.st8{fill:url(#Triangle-6_1_);}
	.st9{fill:url(#Triangle-7_1_);}
	.st10{fill:url(#Triangle-8_1_);}
</style>
<g id="_8" transform="translate(-110 -646)">
	<g transform="matrix(1, 0, 0, 1, 110, 646)">
		<path id="Card-2" class="st0" d="M22.1,0.4h211c12.2,0,22,9.8,22,22v326c0,12.2-9.8,22-22,22h-211c-12.2,0-22-9.8-22-22v-326
			C0.1,10.3,9.9,0.4,22.1,0.4z"/>
	</g>
	<g id="top_symbol" transform="translate(0.51 -4.375)">
		<g id="Polígono_4" transform="translate(197.652 736.5) rotate(180)">
			<path class="st1" d="M59,19.6l9.1,16H49.9L59,19.6z"/>
			<path class="st2" d="M59,23.6l-5.6,9.9h11.3L59,23.6 M59,19.6l9.1,16H49.9L59,19.6z"/>
		</g>
		<path id="Caminho_36" class="st2" d="M132.4,676.4c0-0.8,0.2-1.7,0.7-2.4c0.5-0.7,1.2-1.3,2.1-1.7c1-0.4,2.1-0.6,3.2-0.6
			c1.1,0,2.2,0.2,3.2,0.6c0.8,0.3,1.5,0.9,2,1.7c0.5,0.7,0.7,1.5,0.7,2.4c0,0.9-0.3,1.8-0.8,2.6c-0.7,0.8-1.6,1.3-2.6,1.5
			c1.1,0.2,2.1,0.8,2.9,1.6c0.7,0.8,1.1,1.9,1,3c0.1,1.5-0.6,2.9-1.7,3.9c-1.4,1-3,1.5-4.7,1.4c-1.7,0.1-3.3-0.4-4.7-1.4
			c-1.2-0.9-1.8-2.4-1.8-3.9c0-1.1,0.3-2.1,1-3c0.8-0.8,1.8-1.4,2.8-1.6c-1-0.2-1.9-0.8-2.6-1.5
			C132.6,678.2,132.3,677.3,132.4,676.4z M134.1,676.6c-0.1,1,0.4,1.9,1.1,2.5c0.9,0.6,2,0.9,3.1,0.9c1.1,0.1,2.2-0.3,3.1-0.9
			c0.8-0.6,1.2-1.5,1.1-2.5c0.1-1-0.4-1.9-1.1-2.5c-0.9-0.6-2-0.9-3.1-0.9c-1.1-0.1-2.2,0.3-3.1,0.9
			C134.5,674.7,134.1,675.6,134.1,676.6z M133.6,685c-0.1,1.1,0.4,2.2,1.3,2.8c1,0.7,2.2,1.1,3.4,1c1.2,0.1,2.4-0.3,3.4-1
			c0.9-0.7,1.3-1.8,1.3-2.8c0.1-1.1-0.4-2.2-1.3-2.8c-1-0.7-2.2-1-3.4-0.9c-1.2,0-2.4,0.3-3.4,0.9C134,682.8,133.5,683.9,133.6,685z
			"/>
	</g>
	<g id="top_symbol-2" transform="translate(377 967.95)">
		<g id="Polígono_4-2" transform="translate(18.162 16) rotate(180)">
			<path class="st1" d="M59,19.6l9.1,16H49.9L59,19.6z"/>
			<path class="st2" d="M59,23.6l-5.6,9.9h11.3L59,23.6 M59,19.6l9.1,16H49.9L59,19.6z"/>
		</g>
		<path id="Caminho_36-2" class="st2" d="M-47.1,21c0,0.8,0.2,1.7,0.7,2.4c0.5,0.7,1.2,1.3,2,1.7c1,0.4,2.1,0.6,3.2,0.6
			c1.1,0,2.2-0.2,3.2-0.6c0.8-0.3,1.5-0.9,2-1.7c0.5-0.7,0.7-1.5,0.7-2.4c0-0.9-0.3-1.8-0.8-2.6c-0.7-0.8-1.6-1.3-2.6-1.5
			c1.1-0.2,2.1-0.8,2.8-1.6c0.7-0.8,1.1-1.9,1-3c0.1-1.5-0.6-2.9-1.7-3.9c-1.4-1-3-1.5-4.7-1.4c-1.7-0.1-3.3,0.4-4.7,1.4
			c-1.2,0.9-1.8,2.4-1.8,3.9c0,1.1,0.3,2.1,1,3c0.8,0.8,1.8,1.4,2.8,1.6c-1,0.2-1.9,0.8-2.6,1.5C-46.9,19.1-47.2,20-47.1,21z
			 M-45.4,20.8c-0.1-1,0.4-1.9,1.1-2.5c0.9-0.6,2-0.9,3.1-0.9c1.1-0.1,2.2,0.3,3.1,0.9c0.8,0.6,1.2,1.5,1.1,2.5
			c0.1,1-0.4,1.9-1.1,2.5c-0.9,0.6-2,0.9-3.1,0.9c-1.1,0.1-2.2-0.3-3.1-0.9C-45,22.7-45.4,21.7-45.4,20.8z M-45.9,12.4
			c-0.1-1.1,0.4-2.2,1.3-2.8c1-0.7,2.2-1.1,3.4-1c1.2-0.1,2.4,0.3,3.4,1c0.9,0.7,1.3,1.8,1.3,2.9c0.1,1.1-0.4,2.2-1.3,2.8
			c-1,0.7-2.2,1-3.4,0.9c-1.2,0-2.4-0.3-3.4-0.9C-45.4,14.5-45.9,13.5-45.9,12.4z"/>
	</g>
	
		<linearGradient id="Triangle_1_" gradientUnits="userSpaceOnUse" x1="114.6994" y1="1412.5286" x2="114.6994" y2="1411.5286" gradientTransform="matrix(-50 0 0 43.284 5922.04 -60384.4609)">
		<stop  offset="0" style="stop-color:#FE8C00"/>
		<stop  offset="1" style="stop-color:#F83600"/>
	</linearGradient>
	<path id="Triangle" class="st3" d="M187.1,755.4l-25-43.3h50L187.1,755.4z"/>
	
		<linearGradient id="Triangle-2_1_" gradientUnits="userSpaceOnUse" x1="114.6994" y1="1412.5286" x2="114.6994" y2="1411.5286" gradientTransform="matrix(-50 0 0 43.284 6023.04 -60384.4609)">
		<stop  offset="0" style="stop-color:#FE8C00"/>
		<stop  offset="1" style="stop-color:#F83600"/>
	</linearGradient>
	<path id="Triangle-2" class="st4" d="M288.1,755.4l-25-43.3h50L288.1,755.4z"/>
	
		<linearGradient id="Triangle-3_1_" gradientUnits="userSpaceOnUse" x1="114.6994" y1="1412.5286" x2="114.6994" y2="1411.5286" gradientTransform="matrix(-50 0 0 43.284 5973.04 -60341.4609)">
		<stop  offset="0" style="stop-color:#FE8C00"/>
		<stop  offset="1" style="stop-color:#F83600"/>
	</linearGradient>
	<path id="Triangle-3" class="st5" d="M238.1,798.4l-25-43.3h50L238.1,798.4z"/>
	
		<linearGradient id="Triangle-4_1_" gradientUnits="userSpaceOnUse" x1="114.6994" y1="1412.5286" x2="114.6994" y2="1411.5286" gradientTransform="matrix(-50 0 0 43.284 5973.04 -60244.4609)">
		<stop  offset="0" style="stop-color:#FE8C00"/>
		<stop  offset="1" style="stop-color:#F83600"/>
	</linearGradient>
	<path id="Triangle-4" class="st6" d="M238.1,895.4l-25-43.3h50L238.1,895.4z"/>
	
		<linearGradient id="Triangle-5_1_" gradientUnits="userSpaceOnUse" x1="114.6994" y1="1412.5286" x2="114.6994" y2="1411.5286" gradientTransform="matrix(-50 0 0 43.284 5922.04 -60191.4609)">
		<stop  offset="0" style="stop-color:#FE8C00"/>
		<stop  offset="1" style="stop-color:#F83600"/>
	</linearGradient>
	<path id="Triangle-5" class="st7" d="M187.1,948.4l-25-43.3h50L187.1,948.4z"/>
	
		<linearGradient id="Triangle-6_1_" gradientUnits="userSpaceOnUse" x1="114.6994" y1="1412.5286" x2="114.6994" y2="1411.5286" gradientTransform="matrix(-50 0 0 43.284 6023.04 -60191.4609)">
		<stop  offset="0" style="stop-color:#FE8C00"/>
		<stop  offset="1" style="stop-color:#F83600"/>
	</linearGradient>
	<path id="Triangle-6" class="st8" d="M288.1,948.4l-25-43.3h50L288.1,948.4z"/>
	
		<linearGradient id="Triangle-7_1_" gradientUnits="userSpaceOnUse" x1="114.6994" y1="1412.5286" x2="114.6994" y2="1411.5286" gradientTransform="matrix(-50 0 0 43.284 5922.04 -60288.1758)">
		<stop  offset="0" style="stop-color:#FE8C00"/>
		<stop  offset="1" style="stop-color:#F83600"/>
	</linearGradient>
	<path id="Triangle-7" class="st9" d="M187.1,851.7l-25-43.3h50L187.1,851.7z"/>
	
		<linearGradient id="Triangle-8_1_" gradientUnits="userSpaceOnUse" x1="114.6994" y1="1412.5286" x2="114.6994" y2="1411.5286" gradientTransform="matrix(-50 0 0 43.284 6023.04 -60288.1758)">
		<stop  offset="0" style="stop-color:#FE8C00"/>
		<stop  offset="1" style="stop-color:#F83600"/>
	</linearGradient>
	<path id="Triangle-8" class="st10" d="M288.1,851.7l-25-43.3h50L288.1,851.7z"/>
</g>
</svg>
