<?xml version="1.0" encoding="utf-8"?>
<!-- Generator: Adobe Illustrator 24.1.3, SVG Export Plug-In . SVG Version: 6.00 Build 0)  -->
<svg version="1.1" id="Camada_1" xmlns="http://www.w3.org/2000/svg" xmlns:xlink="http://www.w3.org/1999/xlink" x="0px" y="0px"
	 viewBox="0 0 255 370" style="enable-background:new 0 0 255 370;" xml:space="preserve">
<style type="text/css">
	.st0{fill:#1C1824;}
	.st1{fill:none;}
	.st2{fill:#FFFFFF;}
	.st3{fill:url(#Triangle_1_);}
	.st4{fill:url(#Triangle-2_1_);}
	.st5{fill:url(#Triangle-3_1_);}
	.st6{fill:url(#Triangle-4_1_);}
	.st7{fill:url(#Triangle-5_1_);}
	.st8{fill:url(#Triangle-6_1_);}
	.st9{fill:url(#Triangle-7_1_);}
	.st10{fill:url(#Triangle-8_1_);}
</style>
<g id="Ás" transform="translate(-110 -646)">
	<g transform="matrix(1, 0, 0, 1, 110, 646)">
		<path id="Card-2" class="st0" d="M22.1,0.7h211c12.2,0,22,9.8,22,22v326c0,12.2-9.8,22-22,22h-211c-12.2,0-22-9.8-22-22v-326
			C0.1,10.6,9.9,0.7,22.1,0.7z"/>
	</g>
	<g id="top_symbol" transform="translate(0.51 -4.375)">
		<g id="Polígono_4" transform="translate(197.652 736.5) rotate(180)">
			<path class="st1" d="M59,19.3l9.1,16H49.9L59,19.3z"/>
			<path class="st2" d="M59,23.3l-5.6,9.9h11.3L59,23.3 M59,19.3l9.1,16H49.9L59,19.3z"/>
		</g>
		<path id="Caminho_45" class="st2" d="M142.6,685.8h-8l-1.6,4.3h-1.9l6.5-17.2h2l6.5,17.2h-1.9L142.6,685.8z M142.1,684.4l-3.5-9.5
			l-3.5,9.5H142.1z"/>
	</g>
	<g id="top_symbol-2" transform="translate(377 967.775)">
		<g id="Polígono_4-2" transform="translate(18.162 16) rotate(180)">
			<path class="st1" d="M59,19.3l9.1,16H49.9L59,19.3z"/>
			<path class="st2" d="M59,23.3l-5.6,9.9h11.3L59,23.3 M59,19.3l9.1,16H49.9L59,19.3z"/>
		</g>
		<path id="Caminho_45-2" class="st2" d="M-36.9,12.1h-8l-1.6-4.3h-1.9l6.5,17.2h2l6.5-17.2h-1.9L-36.9,12.1z M-37.4,13.5l-3.5,9.5
			l-3.5-9.5H-37.4z"/>
	</g>
	<g id="Shape_Ás" transform="translate(-1255 251)">
		<g id="Grupo_7" transform="translate(-18 41)">
			
				<linearGradient id="Triangle_1_" gradientUnits="userSpaceOnUse" x1="1386.2115" y1="1120.1267" x2="1386.2115" y2="1121.1267" gradientTransform="matrix(-65.789 0 0 56.952 92708.5469 -63185.2695)">
				<stop  offset="0" style="stop-color:#F83600"/>
				<stop  offset="1" style="stop-color:#FE8C00"/>
			</linearGradient>
			<path id="Triangle" class="st3" d="M1511.1,665.1l-32.9-57h65.8L1511.1,665.1z"/>
			
				<linearGradient id="Triangle-2_1_" gradientUnits="userSpaceOnUse" x1="1386.2115" y1="1120.1267" x2="1386.2115" y2="1121.1267" gradientTransform="matrix(-65.789 0 0 56.952 92666.4375 -63249.7422)">
				<stop  offset="0" style="stop-color:#F83600"/>
				<stop  offset="1" style="stop-color:#FE8C00"/>
			</linearGradient>
			<path id="Triangle-2" class="st4" d="M1469,600.7l-32.9-57h65.8L1469,600.7z"/>
			
				<linearGradient id="Triangle-3_1_" gradientUnits="userSpaceOnUse" x1="1386.2115" y1="1120.1267" x2="1386.2115" y2="1121.1267" gradientTransform="matrix(-65.789 0 0 56.952 92750.6484 -63249.7422)">
				<stop  offset="0" style="stop-color:#F83600"/>
				<stop  offset="1" style="stop-color:#FE8C00"/>
			</linearGradient>
			<path id="Triangle-3" class="st5" d="M1553.2,600.7l-32.9-57h65.8L1553.2,600.7z"/>
			
				<linearGradient id="Triangle-4_1_" gradientUnits="userSpaceOnUse" x1="1376.7885" y1="1123.8733" x2="1376.7885" y2="1124.8733" gradientTransform="matrix(65.789 0 0 -56.952 -89066.4688 64607.4961)">
				<stop  offset="0" style="stop-color:#F83600"/>
				<stop  offset="1" style="stop-color:#FE8C00"/>
			</linearGradient>
			<path id="Triangle-4" class="st6" d="M1511.1,543.7l32.9,57h-65.8L1511.1,543.7z"/>
		</g>
		<g id="Grupo_8" transform="translate(3104 1159.426) rotate(180)">
			
				<linearGradient id="Triangle-5_1_" gradientUnits="userSpaceOnUse" x1="1745.2115" y1="-5.4472" x2="1745.2115" y2="-6.4472" gradientTransform="matrix(65.789 0 0 -56.952 -113204.7969 336.529)">
				<stop  offset="0" style="stop-color:#F83600"/>
				<stop  offset="1" style="stop-color:#FE8C00"/>
			</linearGradient>
			<path id="Triangle-5" class="st7" d="M1610.9,703.7l-32.9-57h65.8L1610.9,703.7z"/>
			
				<linearGradient id="Triangle-6_1_" gradientUnits="userSpaceOnUse" x1="1745.2115" y1="-5.4472" x2="1745.2115" y2="-6.4472" gradientTransform="matrix(65.789 0 0 -56.952 -113246.9063 272.055)">
				<stop  offset="0" style="stop-color:#F83600"/>
				<stop  offset="1" style="stop-color:#FE8C00"/>
			</linearGradient>
			<path id="Triangle-6" class="st8" d="M1568.8,639.2l-32.9-57h65.8L1568.8,639.2z"/>
			
				<linearGradient id="Triangle-7_1_" gradientUnits="userSpaceOnUse" x1="1745.2115" y1="-5.4472" x2="1745.2115" y2="-6.4472" gradientTransform="matrix(65.789 0 0 -56.952 -113162.6953 272.055)">
				<stop  offset="0" style="stop-color:#F83600"/>
				<stop  offset="1" style="stop-color:#FE8C00"/>
			</linearGradient>
			<path id="Triangle-7" class="st9" d="M1653,639.2l-32.9-57h65.8L1653,639.2z"/>
			
				<linearGradient id="Triangle-8_1_" gradientUnits="userSpaceOnUse" x1="1735.7885" y1="-1.7007" x2="1735.7885" y2="-2.7007" gradientTransform="matrix(-65.789 0 0 56.952 115806.7188 736.097)">
				<stop  offset="0" style="stop-color:#F83600"/>
				<stop  offset="1" style="stop-color:#FE8C00"/>
			</linearGradient>
			<path id="Triangle-8" class="st10" d="M1610.9,582.3l32.9,57H1578L1610.9,582.3z"/>
		</g>
	</g>
</g>
</svg>
