<?xml version="1.0" encoding="utf-8"?>
<!-- Generator: Adobe Illustrator 24.1.3, SVG Export Plug-In . SVG Version: 6.00 Build 0)  -->
<svg version="1.1" id="Camada_1" xmlns="http://www.w3.org/2000/svg" xmlns:xlink="http://www.w3.org/1999/xlink" x="0px" y="0px"
	 viewBox="0 0 255 370" style="enable-background:new 0 0 255 370;" xml:space="preserve">
<style type="text/css">
	.st0{fill:#1C1824;}
	.st1{fill:none;}
	.st2{fill:#FFFFFF;}
	.st3{fill:url(#Triangle_1_);}
	.st4{fill:url(#Caminho_47_1_);}
	.st5{fill:url(#Polígono_10-2_1_);}
</style>
<g id="Queen_Card" transform="translate(-110 -646)">
	<g transform="matrix(1, 0, 0, 1, 110, 646)">
		<path id="Card-2" class="st0" d="M22.1,0.7h211c12.2,0,22,9.8,22,22v326c0,12.2-9.8,22-22,22h-211c-12.2,0-22-9.8-22-22v-326
			C0.1,10.6,9.9,0.7,22.1,0.7z"/>
	</g>
	<g id="top_symbol" transform="translate(0.51 -4.375)">
		<g id="Polígono_4" transform="translate(197.652 736.5) rotate(180)">
			<path class="st1" d="M59,19.3l9.1,16H49.9L59,19.3z"/>
			<path class="st2" d="M59,23.3l-5.6,9.9h11.3L59,23.3 M59,19.3l9.1,16H49.9L59,19.3z"/>
		</g>
		<path id="Caminho_42" class="st2" d="M145.1,693.6l-3.9-3.7c-0.9,0.3-1.8,0.4-2.6,0.4c-1.5,0-3.1-0.4-4.4-1.2
			c-1.3-0.8-2.4-1.9-3.1-3.2c-0.8-1.4-1.1-3-1.1-4.7c0-1.6,0.4-3.2,1.1-4.7c0.7-1.3,1.8-2.4,3.1-3.2c1.3-0.8,2.9-1.2,4.4-1.2
			c1.5,0,3.1,0.4,4.4,1.2c1.3,0.8,2.4,1.9,3.1,3.2c0.8,1.4,1.1,3,1.1,4.7c0,1.7-0.4,3.3-1.2,4.8c-0.8,1.4-1.9,2.5-3.2,3.2l4.8,4.3
			H145.1z M131.7,681.3c0,1.4,0.3,2.7,0.9,3.9c0.5,1.1,1.4,2,2.4,2.6c1.1,0.6,2.2,0.9,3.5,0.9c1.2,0,2.4-0.3,3.5-0.9
			c1-0.6,1.9-1.5,2.4-2.6c0.6-1.2,0.9-2.5,0.9-3.9c0-1.4-0.3-2.7-0.9-3.9c-0.5-1.1-1.4-2-2.4-2.6c-1.1-0.6-2.2-0.9-3.5-0.9
			c-1.2,0-2.4,0.3-3.5,0.9c-1,0.6-1.9,1.5-2.4,2.6C132,678.6,131.7,679.9,131.7,681.3z"/>
	</g>
	<g id="top_symbol-2" transform="translate(377 968.175)">
		<g id="Polígono_4-2" transform="translate(18.162 16) rotate(180)">
			<path class="st1" d="M59,19.3l9.1,16H49.9L59,19.3z"/>
			<path class="st2" d="M59,23.3l-5.6,9.9h11.3L59,23.3 M59,19.3l9.1,16H49.9L59,19.3z"/>
		</g>
		<path id="Caminho_42-2" class="st2" d="M-34.4,4.3l-4,3.7c-0.9-0.3-1.8-0.4-2.7-0.4c-1.5,0-3.1,0.4-4.4,1.2
			c-1.3,0.8-2.4,1.9-3.1,3.2c-0.8,1.4-1.1,3-1.1,4.7c0,1.6,0.4,3.2,1.1,4.6c0.7,1.3,1.8,2.4,3.1,3.2c1.3,0.8,2.9,1.2,4.4,1.2
			c1.5,0,3.1-0.4,4.4-1.2c1.3-0.8,2.4-1.9,3.1-3.2c0.8-1.4,1.1-3,1.1-4.7c0-1.7-0.4-3.3-1.2-4.8c-0.8-1.4-1.9-2.5-3.3-3.2l4.8-4.3
			H-34.4z M-47.8,16.7c0-1.4,0.3-2.7,0.9-3.9c0.5-1.1,1.4-2,2.4-2.6c1.1-0.6,2.2-0.9,3.5-0.9c1.2,0,2.4,0.3,3.5,0.9
			c1,0.6,1.9,1.5,2.4,2.6c0.6,1.2,0.9,2.5,0.9,3.9c0,1.4-0.3,2.7-0.9,3.9c-0.5,1.1-1.4,2-2.4,2.6c-1.1,0.6-2.2,0.9-3.5,0.9
			c-1.2,0-2.4-0.3-3.5-0.9c-1-0.6-1.9-1.5-2.4-2.6C-47.5,19.4-47.8,18-47.8,16.7z"/>
	</g>
	
		<linearGradient id="Triangle_1_" gradientUnits="userSpaceOnUse" x1="102.9648" y1="1417.1647" x2="102.9648" y2="1416.1647" gradientTransform="matrix(56 0 0 -49.284 -5526.96 70556.9766)">
		<stop  offset="0" style="stop-color:#FE8C00"/>
		<stop  offset="1" style="stop-color:#F83600"/>
	</linearGradient>
	<path id="Triangle" class="st3" d="M239.1,713.4l28,49.3h-56L239.1,713.4z"/>
	
		<linearGradient id="Caminho_47_1_" gradientUnits="userSpaceOnUse" x1="105.6031" y1="1416.0886" x2="105.6031" y2="1415.0886" gradientTransform="matrix(107 0 0 -98 -11060.96 139626.4063)">
		<stop  offset="0" style="stop-color:#FE8C00"/>
		<stop  offset="1" style="stop-color:#F83600"/>
	</linearGradient>
	<path id="Caminho_47" class="st4" d="M238.6,849.7l53.5,98h-107L238.6,849.7z"/>
	<g transform="matrix(1, 0, 0, 1, 110, 646)">
		
			<linearGradient id="Polígono_10-2_1_" gradientUnits="userSpaceOnUse" x1="0.5528" y1="768.1793" x2="0.5528" y2="767.1793" gradientTransform="matrix(-151 0 0 130 212.04 -99610.6016)">
			<stop  offset="0" style="stop-color:#FE8C00"/>
			<stop  offset="1" style="stop-color:#F83600"/>
		</linearGradient>
		<path id="Polígono_10-2" class="st5" d="M128.6,252.7l-75.5-130h151L128.6,252.7z"/>
	</g>
</g>
</svg>
